<svg xmlns="http://www.w3.org/2000/svg" width="766" height="1600" viewBox="0 0 766 1600" font-family="ui-monospace,Menlo,Consolas,monospace">
<defs><filter id="glow" x="-60%" y="-60%" width="220%" height="220%"><feGaussianBlur stdDeviation="1.3" result="b"/><feMerge><feMergeNode in="b"/><feMergeNode in="SourceGraphic"/></feMerge></filter><pattern id="px" width="7" height="7" patternUnits="userSpaceOnUse"><rect width="7" height="7" fill="#0a0f0a"/><rect width="1" height="1" fill="#54c24c" fill-opacity="0.13"/></pattern><marker id="arr" markerWidth="10" markerHeight="10" refX="8" refY="4" orient="auto"><path d="M0,0 L9,4 L0,8 z" fill="#5cc450"/></marker></defs>
<rect width="766" height="1600" fill="#0a0f0a"/>
<rect width="766" height="1600" fill="url(#px)"/>
<text x="16" y="28" font-size="14" font-weight="700" letter-spacing="3" fill="#54c24c" filter="url(#glow)">PIPELINE</text>
<line x1="272.0" y1="130" x2="272.0" y2="162" stroke="#54c24c" stroke-width="7" opacity="0.16" filter="url(#glow)"/>
<line x1="272.0" y1="130" x2="272.0" y2="162" stroke="#5cc450" stroke-width="2.6" marker-end="url(#arr)"/>
<text x="283" y="150" font-size="12" font-weight="700" fill="#93d98a">VALIDATE</text>
<line x1="272.0" y1="222" x2="272.0" y2="254" stroke="#54c24c" stroke-width="7" opacity="0.16" filter="url(#glow)"/>
<line x1="272.0" y1="222" x2="272.0" y2="254" stroke="#5cc450" stroke-width="2.6" marker-end="url(#arr)"/>
<text x="283" y="242" font-size="11" font-weight="700" fill="#93d98a">✓ pass</text>
<line x1="272.0" y1="302" x2="272.0" y2="334" stroke="#54c24c" stroke-width="7" opacity="0.16" filter="url(#glow)"/>
<line x1="272.0" y1="302" x2="272.0" y2="334" stroke="#5cc450" stroke-width="2.6" marker-end="url(#arr)"/>
<line x1="272.0" y1="416" x2="272.0" y2="448" stroke="#54c24c" stroke-width="7" opacity="0.16" filter="url(#glow)"/>
<line x1="272.0" y1="416" x2="272.0" y2="448" stroke="#5cc450" stroke-width="2.6" marker-end="url(#arr)"/>
<text x="283" y="436" font-size="12" font-weight="700" fill="#93d98a">COMPOSE</text>
<line x1="272.0" y1="508" x2="272.0" y2="540" stroke="#54c24c" stroke-width="7" opacity="0.16" filter="url(#glow)"/>
<line x1="272.0" y1="508" x2="272.0" y2="540" stroke="#5cc450" stroke-width="2.6" marker-end="url(#arr)"/>
<text x="283" y="528" font-size="11" font-weight="700" fill="#93d98a">✓ pass</text>
<line x1="272.0" y1="588" x2="272.0" y2="620" stroke="#54c24c" stroke-width="7" opacity="0.16" filter="url(#glow)"/>
<line x1="272.0" y1="588" x2="272.0" y2="620" stroke="#5cc450" stroke-width="2.6" marker-end="url(#arr)"/>
<line x1="272.0" y1="702" x2="272.0" y2="734" stroke="#54c24c" stroke-width="7" opacity="0.16" filter="url(#glow)"/>
<line x1="272.0" y1="702" x2="272.0" y2="734" stroke="#5cc450" stroke-width="2.6" marker-end="url(#arr)"/>
<text x="283" y="722" font-size="12" font-weight="700" fill="#93d98a">COMPILE</text>
<line x1="272.0" y1="794" x2="272.0" y2="826" stroke="#54c24c" stroke-width="7" opacity="0.16" filter="url(#glow)"/>
<line x1="272.0" y1="794" x2="272.0" y2="826" stroke="#5cc450" stroke-width="2.6" marker-end="url(#arr)"/>
<text x="283" y="814" font-size="11" font-weight="700" fill="#93d98a">✓ pass</text>
<line x1="272.0" y1="874" x2="272.0" y2="906" stroke="#54c24c" stroke-width="7" opacity="0.16" filter="url(#glow)"/>
<line x1="272.0" y1="874" x2="272.0" y2="906" stroke="#5cc450" stroke-width="2.6" marker-end="url(#arr)"/>
<line x1="272.0" y1="988" x2="272.0" y2="1020" stroke="#54c24c" stroke-width="7" opacity="0.16" filter="url(#glow)"/>
<line x1="272.0" y1="988" x2="272.0" y2="1020" stroke="#5cc450" stroke-width="2.6" marker-end="url(#arr)"/>
<text x="283" y="1008" font-size="12" font-weight="700" fill="#93d98a">OVERSEE</text>
<line x1="272.0" y1="1080" x2="272.0" y2="1112" stroke="#54c24c" stroke-width="7" opacity="0.16" filter="url(#glow)"/>
<line x1="272.0" y1="1080" x2="272.0" y2="1112" stroke="#5cc450" stroke-width="2.6" marker-end="url(#arr)"/>
<text x="283" y="1100" font-size="11" font-weight="700" fill="#93d98a">✓ pass</text>
<line x1="272.0" y1="1160" x2="272.0" y2="1192" stroke="#54c24c" stroke-width="7" opacity="0.16" filter="url(#glow)"/>
<line x1="272.0" y1="1160" x2="272.0" y2="1192" stroke="#5cc450" stroke-width="2.6" marker-end="url(#arr)"/>
<line x1="272.0" y1="1274" x2="272.0" y2="1306" stroke="#54c24c" stroke-width="7" opacity="0.16" filter="url(#glow)"/>
<line x1="272.0" y1="1274" x2="272.0" y2="1306" stroke="#5cc450" stroke-width="2.6" marker-end="url(#arr)"/>
<text x="283" y="1294" font-size="12" font-weight="700" fill="#93d98a">EXECUTE</text>
<line x1="272.0" y1="1366" x2="272.0" y2="1398" stroke="#54c24c" stroke-width="7" opacity="0.16" filter="url(#glow)"/>
<line x1="272.0" y1="1366" x2="272.0" y2="1398" stroke="#5cc450" stroke-width="2.6" marker-end="url(#arr)"/>
<text x="283" y="1386" font-size="11" font-weight="700" fill="#93d98a">✓ pass</text>
<line x1="272.0" y1="1446" x2="272.0" y2="1478" stroke="#54c24c" stroke-width="7" opacity="0.16" filter="url(#glow)"/>
<line x1="272.0" y1="1446" x2="272.0" y2="1478" stroke="#5cc450" stroke-width="2.6" marker-end="url(#arr)"/>
<rect x="151.0" y="48" width="242" height="82" fill="#0e1d0d" stroke="#93d98a" stroke-width="2.2" filter="url(#glow)"/>
<text x="164.0" y="71" font-size="14" font-weight="700" letter-spacing="1" fill="#93d98a" filter="url(#glow)">SUBMITTED<tspan font-size="11" letter-spacing="0" fill="#74ad68">  · entry</tspan></text>
<text x="164.0" y="89" font-size="11" fill="#74ad68">a task-ledger (skill, perk,</text>
<text x="164.0" y="103" font-size="11" fill="#74ad68">vars, record_store) is</text>
<text x="164.0" y="117" font-size="11" fill="#74ad68">submitted; nothing has run</text>
<polygon points="272.0,162 351.0,192.0 272.0,222 193.0,192.0" fill="#0c1a0c" stroke="#54c24c" stroke-width="1.8" filter="url(#glow)"/>
<text x="272" y="196" font-size="11" font-weight="600" text-anchor="middle" fill="#54c24c">g_claims_real</text>
<text x="367" y="196" font-size="11" fill="#93d98a">⊨ store_writable ∧ runtime_reachable ∧ inputs_present</text>
<line x1="193.0" y1="192.0" x2="175" y2="192.0" stroke="#d4794e" stroke-width="2"/>
<text x="184" y="186" font-size="11" font-weight="700" text-anchor="middle" fill="#d4794e">✗ fail</text>
<rect x="55.0" y="175" width="120" height="34" fill="#170d09" stroke="#d4794e" stroke-width="1.6"/>
<text x="115.0" y="196" font-size="11" text-anchor="middle" fill="#e7a684">exit / log</text>
<rect x="160.0" y="254" width="224" height="48" fill="#0a1609" stroke="#54c24c" stroke-width="1.5" filter="url(#glow)"/>
<line x1="168.0" y1="254" x2="168.0" y2="302" stroke="#54c24c" stroke-width="1.4"/>
<line x1="376.0" y1="254" x2="376.0" y2="302" stroke="#54c24c" stroke-width="1.4"/>
<text x="272" y="282" font-size="12" font-weight="600" text-anchor="middle" fill="#93d98a">validator:check_claims</text>
<rect x="151.0" y="334" width="242" height="82" fill="#0b140a" stroke="#54c24c" stroke-width="1.5" filter="url(#glow)"/>
<text x="164.0" y="357" font-size="14" font-weight="700" letter-spacing="1" fill="#54c24c" filter="url(#glow)">VALIDATED<tspan font-size="11" letter-spacing="0" fill="#74ad68"></tspan></text>
<text x="164.0" y="375" font-size="11" fill="#74ad68">validator.py confirmed the</text>
<text x="164.0" y="389" font-size="11" fill="#74ad68">claims are real — store</text>
<text x="164.0" y="403" font-size="11" fill="#74ad68">writable, runtime + binaries</text>
<polygon points="272.0,448 351.0,478.0 272.0,508 193.0,478.0" fill="#0c1a0c" stroke="#54c24c" stroke-width="1.8" filter="url(#glow)"/>
<text x="272" y="482" font-size="11" font-weight="600" text-anchor="middle" fill="#54c24c">g_no_deadlock</text>
<text x="367" y="482" font-size="11" fill="#93d98a">⊨ tlc_no_deadlock ∨ structurally_sound</text>
<line x1="193.0" y1="478.0" x2="175" y2="478.0" stroke="#d4794e" stroke-width="2"/>
<text x="184" y="472" font-size="11" font-weight="700" text-anchor="middle" fill="#d4794e">✗ fail</text>
<rect x="55.0" y="461" width="120" height="34" fill="#170d09" stroke="#d4794e" stroke-width="1.6"/>
<text x="115.0" y="482" font-size="11" text-anchor="middle" fill="#e7a684">exit / log</text>
<rect x="160.0" y="540" width="224" height="48" fill="#0a1609" stroke="#54c24c" stroke-width="1.5" filter="url(#glow)"/>
<line x1="168.0" y1="540" x2="168.0" y2="588" stroke="#54c24c" stroke-width="1.4"/>
<line x1="376.0" y1="540" x2="376.0" y2="588" stroke="#54c24c" stroke-width="1.4"/>
<text x="272" y="568" font-size="12" font-weight="600" text-anchor="middle" fill="#93d98a">composer:model_check</text>
<rect x="151.0" y="620" width="242" height="82" fill="#0b140a" stroke="#54c24c" stroke-width="1.5" filter="url(#glow)"/>
<text x="164.0" y="643" font-size="14" font-weight="700" letter-spacing="1" fill="#54c24c" filter="url(#glow)">COMPOSED<tspan font-size="11" letter-spacing="0" fill="#74ad68"></tspan></text>
<text x="164.0" y="661" font-size="11" fill="#74ad68">composer.py model-checked the</text>
<text x="164.0" y="675" font-size="11" fill="#74ad68">L++ blueprint (-&gt; TLC) — no</text>
<text x="164.0" y="689" font-size="11" fill="#74ad68">logical deadlock</text>
<polygon points="272.0,734 351.0,764.0 272.0,794 193.0,764.0" fill="#0c1a0c" stroke="#54c24c" stroke-width="1.8" filter="url(#glow)"/>
<text x="272" y="768" font-size="11" font-weight="600" text-anchor="middle" fill="#54c24c">g_contract_bound</text>
<text x="367" y="768" font-size="11" fill="#93d98a">⊨ sequence_resolved ∧ contracts_present</text>
<line x1="193.0" y1="764.0" x2="175" y2="764.0" stroke="#d4794e" stroke-width="2"/>
<text x="184" y="758" font-size="11" font-weight="700" text-anchor="middle" fill="#d4794e">✗ fail</text>
<rect x="55.0" y="747" width="120" height="34" fill="#170d09" stroke="#d4794e" stroke-width="1.6"/>
<text x="115.0" y="768" font-size="11" text-anchor="middle" fill="#e7a684">exit / log</text>
<rect x="160.0" y="826" width="224" height="48" fill="#0a1609" stroke="#54c24c" stroke-width="1.5" filter="url(#glow)"/>
<line x1="168.0" y1="826" x2="168.0" y2="874" stroke="#54c24c" stroke-width="1.4"/>
<line x1="376.0" y1="826" x2="376.0" y2="874" stroke="#54c24c" stroke-width="1.4"/>
<text x="272" y="854" font-size="12" font-weight="600" text-anchor="middle" fill="#93d98a">compiler:build_script</text>
<rect x="151.0" y="906" width="242" height="82" fill="#0b140a" stroke="#54c24c" stroke-width="1.5" filter="url(#glow)"/>
<text x="164.0" y="929" font-size="14" font-weight="700" letter-spacing="1" fill="#54c24c" filter="url(#glow)">COMPILED<tspan font-size="11" letter-spacing="0" fill="#74ad68"></tspan></text>
<text x="164.0" y="947" font-size="11" fill="#74ad68">compiler.py turned ledger +</text>
<text x="164.0" y="961" font-size="11" fill="#74ad68">manifesto + contracts + snippets</text>
<text x="164.0" y="975" font-size="11" fill="#74ad68">into ONE step-wise bash script</text>
<polygon points="272.0,1020 351.0,1050.0 272.0,1080 193.0,1050.0" fill="#0c1a0c" stroke="#54c24c" stroke-width="1.8" filter="url(#glow)"/>
<text x="272" y="1054" font-size="11" font-weight="600" text-anchor="middle" fill="#54c24c">g_oversight_clear</text>
<text x="367" y="1054" font-size="11" fill="#93d98a">⊨ no_dangerous_pattern ∨ approved</text>
<line x1="193.0" y1="1050.0" x2="175" y2="1050.0" stroke="#d4794e" stroke-width="2"/>
<text x="184" y="1044" font-size="11" font-weight="700" text-anchor="middle" fill="#d4794e">✗ fail</text>
<rect x="55.0" y="1033" width="120" height="34" fill="#170d09" stroke="#d4794e" stroke-width="1.6"/>
<text x="115.0" y="1054" font-size="11" text-anchor="middle" fill="#e7a684">exit / log</text>
<rect x="160.0" y="1112" width="224" height="48" fill="#0a1609" stroke="#54c24c" stroke-width="1.5" filter="url(#glow)"/>
<line x1="168.0" y1="1112" x2="168.0" y2="1160" stroke="#54c24c" stroke-width="1.4"/>
<line x1="376.0" y1="1112" x2="376.0" y2="1160" stroke="#54c24c" stroke-width="1.4"/>
<text x="272" y="1140" font-size="12" font-weight="600" text-anchor="middle" fill="#93d98a">oversight:scan</text>
<rect x="151.0" y="1192" width="242" height="82" fill="#0b140a" stroke="#54c24c" stroke-width="1.5" filter="url(#glow)"/>
<text x="164.0" y="1215" font-size="14" font-weight="700" letter-spacing="1" fill="#54c24c" filter="url(#glow)">CLEARED<tspan font-size="11" letter-spacing="0" fill="#74ad68"></tspan></text>
<text x="164.0" y="1233" font-size="11" fill="#74ad68">oversight.py scanned the script</text>
<text x="164.0" y="1247" font-size="11" fill="#74ad68">against OVERSIGHT_RULE — no</text>
<text x="164.0" y="1261" font-size="11" fill="#74ad68">unapproved destructive/dangerous</text>
<polygon points="272.0,1306 351.0,1336.0 272.0,1366 193.0,1336.0" fill="#0c1a0c" stroke="#54c24c" stroke-width="1.8" filter="url(#glow)"/>
<text x="272" y="1340" font-size="11" font-weight="600" text-anchor="middle" fill="#54c24c">g_governed</text>
<text x="367" y="1340" font-size="11" fill="#93d98a">⊨ tamper_check_pass ∧ upstream_recorded</text>
<line x1="193.0" y1="1336.0" x2="175" y2="1336.0" stroke="#d4794e" stroke-width="2"/>
<text x="184" y="1330" font-size="11" font-weight="700" text-anchor="middle" fill="#d4794e">✗ fail</text>
<rect x="55.0" y="1319" width="120" height="34" fill="#170d09" stroke="#d4794e" stroke-width="1.6"/>
<text x="115.0" y="1340" font-size="11" text-anchor="middle" fill="#e7a684">exit / log</text>
<rect x="160.0" y="1398" width="224" height="48" fill="#0a1609" stroke="#54c24c" stroke-width="1.5" filter="url(#glow)"/>
<line x1="168.0" y1="1398" x2="168.0" y2="1446" stroke="#54c24c" stroke-width="1.4"/>
<line x1="376.0" y1="1398" x2="376.0" y2="1446" stroke="#54c24c" stroke-width="1.4"/>
<text x="272" y="1426" font-size="12" font-weight="600" text-anchor="middle" fill="#93d98a">executor:govern_run</text>
<rect x="151.0" y="1478" width="242" height="82" fill="#0f2410" stroke="#93d98a" stroke-width="2.2" filter="url(#glow)"/>
<text x="164.0" y="1501" font-size="14" font-weight="700" letter-spacing="1" fill="#93d98a" filter="url(#glow)">EXECUTED<tspan font-size="11" letter-spacing="0" fill="#74ad68">  · terminal</tspan></text>
<text x="164.0" y="1519" font-size="11" fill="#74ad68">executor.py ran it through the</text>
<text x="164.0" y="1533" font-size="11" fill="#74ad68">governed channel —</text>
<text x="164.0" y="1547" font-size="11" fill="#74ad68">tamper-checked, upstream-gated,</text>
</svg>
