<svg xmlns="http://www.w3.org/2000/svg" width="310" height="810" viewBox="0 0 310 810" font-family="-apple-system,Segoe UI,Roboto,sans-serif">
<defs><marker id="arr" markerWidth="9" markerHeight="9" refX="7" refY="3" orient="auto"><path d="M0,0 L7,3 L0,6 z" fill="#444"/></marker></defs>
<rect width="310" height="810" fill="#ffffff"/>
<text x="14" y="20" font-size="13" font-weight="700" fill="#333">pg_ops</text>
<path d="M135.0,108 C135.0,153 135.0,135 135.0,180" fill="none" stroke="#444" stroke-width="1.4" marker-end="url(#arr)"/>
<text x="140" y="142" font-size="11" font-weight="600" fill="#333">CONNECT</text>
<text x="140" y="155" font-size="9" fill="#999">a_connect</text>
<path d="M135.0,258 C135.0,303 135.0,285 135.0,330" fill="none" stroke="#444" stroke-width="1.4" marker-end="url(#arr)"/>
<text x="140" y="292" font-size="11" font-weight="600" fill="#333">OPERATE</text>
<text x="140" y="305" font-size="9" fill="#999">a_operate</text>
<path d="M135.0,408 C135.0,453 135.0,435 135.0,480" fill="none" stroke="#444" stroke-width="1.4" marker-end="url(#arr)"/>
<text x="140" y="442" font-size="11" font-weight="600" fill="#333">VERIFY</text>
<text x="140" y="455" font-size="9" fill="#999">a_verify</text>
<path d="M135.0,558 C135.0,603 135.0,585 135.0,630" fill="none" stroke="#444" stroke-width="1.4" marker-end="url(#arr)"/>
<text x="140" y="592" font-size="11" font-weight="600" fill="#333">RECORD</text>
<text x="140" y="605" font-size="9" fill="#999">a_record</text>
<rect x="30" y="30" width="210" height="78" rx="9" fill="#dae8fc" stroke="#6c8ebf" stroke-width="1.5"/>
<text x="41" y="50" font-size="13" font-weight="700" fill="#222">ready</text>
<text x="41" y="67" font-size="9.5" fill="#555">task-ledger submitted, nothing</text>
<text x="41" y="79" font-size="9.5" fill="#555">run</text>
<rect x="30" y="180" width="210" height="78" rx="9" fill="#f5f5f5" stroke="#aaaaaa" stroke-width="1.5"/>
<text x="41" y="200" font-size="13" font-weight="700" fill="#222">connected</text>
<text x="41" y="217" font-size="9.5" fill="#555">connection validated — host</text>
<text x="41" y="229" font-size="9.5" fill="#555">reachable, creds present,</text>
<text x="41" y="241" font-size="9.5" fill="#555">record_store writable</text>
<rect x="30" y="330" width="210" height="78" rx="9" fill="#f5f5f5" stroke="#aaaaaa" stroke-width="1.5"/>
<text x="41" y="350" font-size="13" font-weight="700" fill="#222">operated</text>
<text x="41" y="367" font-size="9.5" fill="#555">the chosen perk&#x27;s tool sequence</text>
<text x="41" y="379" font-size="9.5" fill="#555">ran — ONLY via executor.py</text>
<rect x="30" y="480" width="210" height="78" rx="9" fill="#f5f5f5" stroke="#aaaaaa" stroke-width="1.5"/>
<text x="41" y="500" font-size="13" font-weight="700" fill="#222">verified</text>
<text x="41" y="517" font-size="9.5" fill="#555">the perk&#x27;s contract checks passed</text>
<text x="41" y="529" font-size="9.5" fill="#555">(exit 0, declared outputs exist)</text>
<rect x="30" y="630" width="210" height="78" rx="9" fill="#d5e8d4" stroke="#82b366" stroke-width="1.5"/>
<text x="41" y="650" font-size="13" font-weight="700" fill="#222">recorded</text>
<text x="41" y="667" font-size="9.5" fill="#555">run metadata + outputs recorded</text>
<text x="41" y="679" font-size="9.5" fill="#555">to the run-ledger</text>
</svg>
